<?xml version="1.0" standalone="no"?>
<!DOCTYPE svg PUBLIC "-//W3C//DTD SVG 20010904//EN"
 "http://www.w3.org/TR/2001/REC-SVG-20010904/DTD/svg10.dtd">
<svg version="1.0" xmlns="http://www.w3.org/2000/svg"
 width="3375.000000pt" height="3375.000000pt" viewBox="0 0 3375.000000 3375.000000"
 preserveAspectRatio="xMidYMid meet">

<g transform="translate(0.000000,3375.000000) scale(0.100000,-0.100000)"
fill="#000000" stroke="none">
<path d="M13770 17710 l0 -1940 405 0 405 0 0 743 c0 791 3 850 50 987 33 98
77 168 149 240 114 113 250 168 436 177 355 17 560 -160 604 -522 7 -58 11
-361 11 -857 l0 -768 405 0 405 0 0 863 c0 858 -3 958 -36 1122 -72 356 -274
617 -591 761 -266 121 -670 139 -973 42 -157 -50 -318 -139 -417 -231 l-43
-40 0 682 0 681 -405 0 -405 0 0 -1940z"/>
<path d="M27300 17710 l0 -1940 405 0 405 0 0 359 0 358 199 192 200 192 48
-59 c26 -32 226 -279 443 -550 l395 -491 493 -1 494 0 -30 38 c-51 66 -1224
1557 -1234 1570 -8 9 88 113 368 397 209 212 471 480 582 595 l204 210 -484 0
-483 0 -590 -560 c-324 -308 -593 -560 -597 -560 -5 0 -8 493 -8 1095 l0 1095
-405 0 -405 0 0 -1940z"/>
<path d="M18951 19479 c-133 -14 -325 -56 -456 -100 -642 -214 -1113 -732
-1244 -1369 -46 -219 -52 -524 -17 -735 116 -689 584 -1229 1261 -1454 233
-78 450 -111 720 -111 264 0 463 31 695 106 450 147 822 442 1054 836 128 218
206 459 237 727 15 133 7 435 -15 556 -108 597 -471 1076 -1021 1345 -212 104
-464 174 -714 200 -120 12 -379 11 -500 -1z m561 -742 c405 -107 695 -395 803
-800 56 -207 55 -468 -1 -678 -115 -431 -446 -735 -887 -814 -143 -26 -384
-17 -519 18 -318 84 -564 278 -710 562 -78 154 -111 269 -128 458 -29 314 54
621 232 858 161 213 414 365 690 414 58 10 135 13 253 11 143 -3 186 -8 267
-29z"/>
<path d="M4948 19396 c-13 -27 -431 -964 -1594 -3573 l-24 -53 433 0 432 0
160 386 c87 212 163 388 168 391 7 4 1642 8 1692 4 6 -1 82 -177 170 -391
l160 -390 443 0 c260 0 442 4 440 9 -1 5 -370 828 -818 1830 l-814 1821 -416
0 -416 0 -16 -34z m720 -1503 c155 -375 282 -686 282 -690 0 -5 -260 -9 -577
-8 -380 0 -577 3 -576 10 2 11 562 1365 570 1378 3 5 8 5 12 0 4 -4 134 -315
289 -690z"/>
<path d="M21900 18860 l0 -340 -220 0 -220 0 0 -315 0 -315 219 0 220 0 4
-687 c3 -660 4 -692 25 -775 116 -477 492 -719 1082 -695 225 9 420 59 547
139 l52 33 -105 275 c-58 151 -109 278 -113 283 -4 4 -28 -4 -52 -17 -186
-104 -423 -93 -536 26 -18 18 -45 60 -60 93 l-28 60 -3 633 -3 632 351 0 350
0 0 315 0 315 -350 0 -350 0 0 340 0 340 -405 0 -405 0 0 -340z"/>
<path d="M8555 18604 c-450 -61 -770 -247 -913 -530 -55 -109 -74 -187 -79
-330 -13 -330 106 -542 389 -693 131 -71 407 -140 758 -191 268 -39 414 -78
478 -126 47 -37 76 -103 67 -157 -19 -111 -102 -178 -261 -211 -314 -65 -777
11 -1119 184 l-117 59 -38 -82 c-186 -396 -228 -493 -219 -503 20 -25 227
-118 352 -159 260 -85 483 -123 772 -132 296 -9 510 17 734 89 195 62 346 152
466 280 137 145 194 282 202 489 10 239 -46 401 -187 539 -174 171 -356 236
-935 335 -216 37 -374 73 -437 99 -139 58 -176 201 -81 307 77 86 197 126 403
136 267 12 530 -41 777 -157 l101 -48 86 182 c46 99 107 229 135 289 l50 107
-59 30 c-190 96 -432 162 -716 195 -158 18 -471 18 -609 -1z"/>
<path d="M11440 18613 c-173 -18 -384 -62 -540 -113 -109 -35 -298 -124 -382
-178 l-57 -37 140 -275 c78 -151 144 -278 148 -282 3 -4 33 12 66 34 122 83
291 150 479 190 147 31 386 31 510 0 213 -53 345 -179 391 -374 8 -35 15 -84
15 -110 l0 -46 -457 -5 c-481 -4 -553 -10 -737 -58 -197 -50 -324 -118 -441
-234 -93 -93 -136 -161 -178 -283 -26 -76 -30 -105 -34 -227 -4 -119 -2 -153
16 -230 78 -325 326 -542 716 -627 133 -29 387 -35 534 -14 123 18 247 54 326
93 111 56 234 162 282 244 10 16 21 29 25 29 4 0 8 -76 8 -170 l0 -170 380 0
380 0 0 788 c0 987 -7 1102 -77 1317 -137 423 -489 675 -1025 734 -89 10 -406
13 -488 4z m770 -1817 l0 -153 -32 -63 c-96 -186 -307 -300 -558 -302 -185 -2
-311 41 -393 132 -54 60 -77 122 -77 206 0 188 126 297 375 323 44 5 216 9
383 10 l302 1 0 -154z"/>
<path d="M24930 18609 c-253 -29 -544 -111 -735 -206 -85 -43 -195 -112 -195
-122 0 -7 278 -551 285 -559 2 -2 25 12 52 31 118 85 337 171 513 203 127 23
367 24 470 1 103 -23 210 -76 274 -137 86 -81 134 -190 151 -342 l6 -56 -463
-5 c-494 -5 -562 -10 -753 -62 -334 -89 -544 -280 -621 -565 -25 -92 -25 -329
0 -419 87 -315 337 -531 711 -612 119 -26 378 -36 508 -20 241 31 412 105 542
236 44 44 90 94 102 110 l22 30 0 -172 1 -173 380 0 381 0 -4 908 c-3 989 -3
982 -63 1174 -71 225 -176 381 -346 508 -240 181 -538 262 -956 259 -103 -1
-221 -5 -262 -10z m818 -1806 l3 -142 -35 -69 c-89 -176 -265 -289 -487 -312
-283 -29 -500 78 -539 266 -28 134 24 262 133 324 117 67 206 78 617 76 l305
-1 3 -142z"/>
<path d="M13674 14525 c-114 -25 -212 -89 -259 -169 -29 -50 -45 -142 -34
-199 4 -23 8 -45 9 -49 0 -15 76 -91 112 -114 20 -13 101 -44 180 -70 163 -53
192 -66 230 -102 92 -86 36 -238 -107 -291 -152 -57 -380 -25 -498 70 -41 33
-42 33 -76 -22 l-21 -37 31 -26 c108 -92 330 -136 506 -103 145 28 251 96 298
192 29 61 33 180 6 232 -39 78 -90 108 -296 177 -207 69 -251 99 -262 183 -17
128 98 227 280 240 107 7 196 -9 281 -52 l65 -33 27 45 c30 51 31 49 -51 88
-107 52 -290 69 -421 40z"/>
<path d="M8776 13993 c-59 -296 -110 -548 -113 -560 l-5 -23 298 0 c326 1 413
10 507 53 74 34 131 88 164 155 23 48 28 70 28 137 0 87 -12 119 -62 169 -15
16 -46 37 -67 47 l-39 17 50 25 c103 53 166 154 167 272 1 123 -60 193 -199
229 -47 13 -119 16 -341 16 l-281 0 -107 -537z m730 409 c22 -13 49 -37 58
-54 20 -33 23 -117 7 -161 -17 -44 -79 -103 -134 -128 -49 -23 -65 -24 -295
-27 l-243 -4 6 24 c7 29 75 370 75 375 0 3 109 3 243 1 233 -3 244 -4 283 -26z
m-76 -493 c81 -32 110 -74 110 -157 0 -101 -52 -170 -162 -215 -49 -20 -75
-22 -315 -25 -151 -2 -263 0 -263 5 0 5 18 99 40 208 22 109 40 200 40 203 0
2 116 2 258 0 192 -3 266 -8 292 -19z"/>
<path d="M11276 13993 c-59 -296 -110 -548 -113 -560 -5 -22 -2 -23 54 -23
l60 0 107 538 c59 295 110 547 113 560 5 21 2 22 -54 22 l-60 0 -107 -537z"/>
<path d="M11766 13993 c-59 -296 -110 -548 -113 -560 -5 -22 -2 -23 54 -23
l60 0 32 163 c18 89 34 170 37 180 5 15 23 17 192 17 l187 0 100 -180 100
-179 63 -1 c34 0 62 2 62 5 0 3 -45 85 -100 181 -55 97 -100 180 -100 184 0 4
11 11 25 14 53 13 138 61 185 103 124 112 165 343 85 480 -31 52 -86 94 -164
125 -52 21 -74 23 -327 26 l-271 3 -107 -538z m619 422 c138 -36 193 -131 166
-286 -21 -116 -86 -190 -206 -234 -41 -15 -89 -19 -267 -23 -120 -2 -218 -2
-218 0 0 2 25 127 55 278 30 151 55 275 55 277 0 2 80 3 178 3 128 0 194 -4
237 -15z"/>
<path d="M12916 13993 c-59 -296 -110 -548 -113 -560 -5 -22 -2 -23 54 -23
l60 0 107 538 c59 295 110 547 113 560 5 21 2 22 -54 22 l-60 0 -107 -537z"/>
<path d="M14806 13993 c-59 -296 -110 -548 -113 -560 -5 -22 -2 -23 55 -23
l60 0 37 193 c20 105 41 213 47 240 l10 47 288 0 c159 0 291 3 293 8 3 4 8 26
12 49 l7 43 -289 2 -289 3 32 160 c17 88 37 186 43 218 l12 57 324 0 c178 0
326 3 328 8 3 4 8 26 12 50 l7 42 -385 0 -384 0 -107 -537z"/>
<path d="M20666 13993 c-59 -296 -110 -548 -113 -560 -5 -22 -2 -23 55 -23
l60 0 37 193 c20 105 41 213 47 240 l10 47 288 0 c159 0 291 3 293 8 3 4 8 26
12 49 l7 43 -290 2 -289 3 34 165 c18 91 38 189 44 218 l10 52 324 0 c178 0
326 3 328 8 3 4 8 26 12 50 l7 42 -385 0 -384 0 -107 -537z"/>
<path d="M16986 14423 c-2 -10 -10 -45 -16 -78 -19 -102 -12 -95 -95 -95 l-74
0 -8 -42 -9 -43 73 -3 c40 -2 73 -6 73 -9 0 -3 -22 -120 -50 -260 -57 -288
-60 -330 -27 -393 42 -85 161 -119 287 -82 72 21 81 32 69 78 -6 21 -12 40
-14 42 -1 1 -22 -7 -46 -18 -60 -27 -117 -26 -160 3 -57 39 -57 64 4 367 l53
265 124 3 c69 1 128 6 131 10 4 4 10 24 13 45 l7 37 -126 0 c-143 0 -134 -8
-110 100 21 94 22 90 -39 90 -43 0 -56 -4 -60 -17z"/>
<path d="M18970 14246 c-73 -16 -120 -40 -176 -89 l-47 -42 7 45 c4 25 9 55
13 68 5 21 2 22 -50 22 l-56 0 -10 -52 c-44 -216 -151 -767 -151 -777 0 -7 21
-11 55 -11 30 0 55 2 55 4 0 2 23 115 50 252 34 164 59 264 76 298 54 109 150
174 271 184 l61 5 7 36 c3 20 8 44 11 54 4 14 -1 17 -28 16 -18 0 -58 -6 -88
-13z"/>
<path d="M19485 14246 c-222 -54 -365 -259 -353 -506 6 -108 33 -173 99 -235
61 -57 121 -83 223 -97 130 -17 269 16 363 88 39 30 40 34 11 78 l-22 34 -31
-24 c-81 -62 -205 -91 -314 -73 -140 22 -208 93 -219 226 l-5 63 356 0 356 0
7 36 c4 20 4 68 1 107 -11 124 -77 227 -182 280 -69 35 -200 45 -290 23z m211
-101 c91 -27 153 -113 154 -212 l0 -53 -295 0 c-335 0 -314 -7 -271 86 42 90
110 152 199 180 57 17 153 17 213 -1z"/>
<path d="M21913 14250 c-237 -47 -393 -257 -381 -510 5 -109 37 -179 109 -244
76 -68 141 -90 269 -89 118 1 186 19 272 74 187 120 270 407 173 598 -68 136
-254 208 -442 171z m227 -117 c93 -41 132 -103 138 -219 13 -239 -138 -407
-365 -407 -69 0 -91 4 -138 28 -105 51 -148 150 -128 291 23 163 128 288 270
324 59 14 172 6 223 -17z"/>
<path d="M23020 14246 c-73 -16 -120 -40 -176 -89 l-47 -42 7 45 c4 25 9 55
13 68 5 21 2 22 -50 22 -49 0 -55 -3 -60 -22 -11 -48 -157 -796 -157 -807 0
-7 21 -11 55 -11 30 0 55 2 55 4 0 2 23 115 50 252 34 164 59 264 76 298 54
109 150 174 271 184 l61 5 7 36 c3 20 8 44 11 54 4 14 -1 17 -28 16 -18 0 -58
-6 -88 -13z"/>
<path d="M23530 14242 c-130 -34 -235 -118 -294 -235 -100 -199 -60 -413 94
-505 76 -45 120 -56 230 -55 130 0 185 22 317 125 8 6 7 -12 -4 -59 -35 -154
-80 -226 -170 -275 -128 -70 -360 -52 -477 37 l-37 28 -29 -34 c-16 -19 -29
-39 -30 -45 0 -18 60 -60 129 -89 91 -38 209 -52 321 -37 200 27 312 118 375
305 19 56 175 806 175 840 0 4 -24 7 -54 7 l-53 0 -13 -77 c-7 -43 -15 -81
-17 -86 -2 -4 -19 14 -36 40 -76 112 -254 160 -427 115z m237 -97 c123 -36
179 -120 171 -255 -13 -226 -208 -380 -430 -340 -81 15 -137 48 -174 102 -27
40 -29 49 -29 143 0 87 3 107 26 155 62 134 179 207 330 209 30 1 78 -6 106
-14z"/>
<path d="M24635 14246 c-222 -54 -365 -259 -353 -506 6 -108 33 -173 99 -235
61 -57 121 -83 223 -97 130 -17 269 16 363 88 39 30 40 34 11 78 l-22 34 -31
-24 c-81 -62 -205 -91 -314 -73 -140 22 -208 93 -219 226 l-5 63 356 0 356 0
7 36 c4 20 4 68 1 107 -11 124 -77 227 -182 280 -69 35 -200 45 -290 23z m211
-101 c91 -27 153 -113 154 -212 l0 -53 -295 0 c-335 0 -314 -7 -271 86 42 90
110 152 199 180 57 17 153 17 213 -1z"/>
<path d="M9860 14243 c0 -5 46 -193 102 -419 l102 -411 -42 -64 c-72 -111
-137 -159 -217 -159 -39 0 -100 22 -126 46 -16 14 -20 12 -48 -30 l-31 -45 43
-25 c139 -82 301 -48 404 84 40 52 194 287 584 893 l88 137 -58 0 -58 0 -229
-357 -229 -358 -80 330 c-45 182 -84 342 -88 358 -7 25 -11 27 -62 27 -30 0
-55 -3 -55 -7z"/>
<path d="M15790 13984 c-42 -213 -52 -279 -48 -332 11 -146 100 -232 258 -247
121 -12 245 27 329 105 l33 31 -7 -38 c-3 -21 -9 -50 -12 -65 -5 -28 -5 -28
48 -28 l54 0 79 394 c43 217 81 406 83 420 5 25 4 26 -51 26 -49 0 -56 -2 -61
-22 -3 -13 -25 -122 -49 -243 -25 -121 -52 -241 -62 -265 -55 -140 -160 -211
-314 -211 -107 0 -162 28 -200 101 -23 43 -13 149 38 398 l49 242 -57 0 -57 0
-53 -266z"/>
<path d="M17520 13984 c-42 -213 -52 -279 -48 -332 11 -146 100 -232 258 -247
121 -12 245 27 329 105 l33 31 -7 -38 c-3 -21 -9 -50 -12 -65 -5 -28 -5 -28
48 -28 l54 0 79 394 c43 217 81 406 83 420 5 25 4 26 -51 26 -49 0 -56 -2 -61
-22 -3 -13 -25 -122 -49 -243 -25 -121 -52 -241 -62 -265 -55 -140 -160 -211
-314 -211 -107 0 -162 28 -200 101 -23 43 -13 149 38 398 l49 242 -57 0 -57 0
-53 -266z"/>
</g>
</svg>
