<?xml version="1.0" standalone="no"?>
<!DOCTYPE svg PUBLIC "-//W3C//DTD SVG 20010904//EN"
 "http://www.w3.org/TR/2001/REC-SVG-20010904/DTD/svg10.dtd">
<svg version="1.0" xmlns="http://www.w3.org/2000/svg"
 width="4404.000000pt" height="4456.000000pt" viewBox="0 0 4404.000000 4456.000000"
 preserveAspectRatio="xMidYMid meet">

<g transform="translate(0.000000,4456.000000) scale(0.100000,-0.100000)"
fill="#000000" stroke="none">
<path d="M20235 44505 c-829 -161 -1640 -375 -2317 -610 -1958 -682 -3496
-1688 -4613 -3019 -1252 -1492 -1988 -3390 -2204 -5686 -49 -522 -75 -1150
-69 -1704 l3 -359 -203 -53 c-1154 -303 -2163 -733 -3112 -1325 l-205 -128
-1930 -22 c-1062 -12 -1931 -23 -1932 -24 -2 -1 426 -737 951 -1636 l954
-1634 -8 -165 c-20 -375 -9 -845 31 -1275 57 -622 166 -1205 397 -2129 l60
-237 -22 -13 c-11 -7 -91 -51 -176 -96 -866 -463 -1653 -982 -2358 -1558 -511
-417 -1088 -990 -1487 -1477 -1806 -2206 -2385 -4969 -1730 -8260 138 -696
318 -1369 566 -2120 l109 -330 107 -39 c803 -292 1236 -775 1328 -1479 27
-209 17 -545 -25 -791 -5 -32 -6 -64 -3 -70 4 -6 54 -65 112 -131 582 -658
1191 -1262 1786 -1773 1744 -1495 3538 -2357 5400 -2592 690 -87 1435 -85
2155 6 1537 193 3140 806 4773 1825 131 82 241 149 245 149 3 0 159 -152 347
-338 461 -458 682 -660 1001 -919 491 -397 924 -674 1450 -929 132 -63 250
-121 263 -127 18 -9 291 -479 986 -1699 529 -928 968 -1696 976 -1708 13 -18
88 113 964 1684 l950 1704 75 33 c152 66 500 238 655 324 895 494 1693 1162
2373 1988 59 71 111 126 118 123 7 -3 87 -52 178 -110 1565 -997 3122 -1636
4606 -1890 562 -97 963 -130 1545 -130 498 0 769 19 1229 85 2428 347 4772
1781 6986 4274 l142 160 -7 65 c-38 377 -33 602 21 868 69 348 216 630 453
875 213 219 455 378 796 521 l110 46 84 236 c943 2648 1160 4998 650 7039
-673 2695 -2591 4874 -5761 6542 -131 69 -238 126 -238 127 0 1 20 62 45 136
183 541 271 1039 327 1855 7 105 12 473 13 960 l1 790 957 1640 957 1640
-1902 5 -1903 5 -135 81 c-546 328 -1265 663 -2024 944 -385 142 -951 327
-1326 433 l-85 24 5 229 c14 648 1 1295 -36 1769 -152 1967 -689 3627 -1622
5010 -613 909 -1380 1677 -2340 2341 -631 437 -1444 867 -2242 1186 -729 292
-1538 541 -2410 742 -205 47 -787 166 -811 166 -8 0 -59 -37 -114 -81 -147
-119 -351 -251 -499 -324 -524 -256 -1009 -256 -1533 1 -149 74 -351 204 -498
323 -55 44 -109 80 -120 80 -11 -1 -119 -20 -240 -44z m263 -459 c589 -420
1170 -567 1767 -444 308 62 661 228 972 454 l104 76 177 -37 c2429 -501 4316
-1342 5729 -2555 1251 -1075 2123 -2448 2608 -4110 231 -792 374 -1645 435
-2605 32 -508 32 -1297 0 -1837 -6 -94 -9 -172 -8 -173 2 -1 131 -39 288 -83
1373 -390 2488 -846 3396 -1388 l192 -114 1612 0 c1453 0 1612 -2 1606 -16 -3
-8 -370 -639 -814 -1402 l-809 -1387 9 -420 c22 -1022 -17 -1777 -122 -2370
-64 -361 -187 -781 -317 -1090 l-60 -140 306 -156 c1244 -633 2252 -1306 3127
-2090 208 -186 633 -613 806 -809 1033 -1172 1676 -2445 1968 -3897 70 -347
118 -704 152 -1118 20 -251 17 -1182 -5 -1450 -65 -782 -181 -1475 -377 -2250
-137 -542 -320 -1141 -490 -1605 l-31 -85 -67 -29 c-185 -81 -436 -233 -601
-366 -116 -94 -296 -277 -374 -382 -184 -246 -317 -542 -381 -843 -46 -219
-59 -382 -54 -665 l5 -255 -97 -110 c-557 -629 -1265 -1309 -1900 -1826 -2125
-1728 -4354 -2495 -6670 -2293 -1786 155 -3653 882 -5587 2176 -56 37 -106 68
-111 68 -5 0 -50 -54 -101 -121 -396 -516 -841 -983 -1321 -1384 -524 -437
-1195 -849 -1820 -1115 -80 -34 -150 -66 -156 -71 -6 -5 -375 -662 -820 -1459
-445 -797 -812 -1448 -816 -1447 -5 1 -377 650 -829 1442 -451 792 -826 1449
-833 1460 -8 11 -70 44 -142 74 -173 73 -557 268 -729 371 -213 126 -436 277
-653 440 -423 317 -700 566 -1308 1175 l-480 482 -35 -24 c-18 -13 -122 -81
-229 -150 -1402 -909 -2767 -1506 -4105 -1797 -859 -187 -1744 -242 -2580
-160 -1627 158 -3199 814 -4747 1981 -751 565 -1522 1283 -2277 2118 l-143
159 6 55 c102 866 -137 1566 -693 2033 -190 159 -480 332 -727 432 l-91 38
-86 266 c-447 1385 -690 2616 -757 3832 -13 236 -13 883 0 1105 90 1546 513
2899 1288 4115 546 858 1276 1653 2182 2375 680 543 1493 1061 2398 1530 128
66 212 115 212 124 0 8 -58 251 -129 540 -182 739 -253 1068 -315 1471 -105
679 -138 1350 -96 1953 l10 137 -814 1394 -813 1394 361 6 c198 4 944 13 1656
22 l1294 15 140 91 c981 640 2115 1121 3357 1422 123 30 241 58 263 62 l39 7
-8 266 c-21 733 -2 1427 56 2051 298 3196 1618 5569 3964 7130 389 258 717
446 1160 665 897 443 1899 790 3044 1055 209 48 680 147 709 149 7 1 66 -37
130 -83z"/>
<path d="M20000 42558 c-1390 -322 -2470 -734 -3442 -1314 -1630 -973 -2743
-2386 -3283 -4169 -208 -688 -327 -1373 -385 -2225 -15 -215 -24 -1031 -13
-1223 l9 -157 81 -118 c562 -809 981 -1487 1384 -2238 133 -249 401 -786 394
-792 -2 -2 -98 34 -212 81 -552 227 -1189 445 -1768 606 -469 130 -1126 281
-1221 281 -113 0 -684 -169 -1120 -331 -605 -225 -1138 -494 -1687 -851 -189
-124 -321 -189 -482 -241 -222 -71 -434 -104 -740 -114 -211 -7 -243 -15 -288
-75 -32 -41 -50 -110 -42 -151 4 -18 43 -99 88 -181 176 -325 275 -612 308
-896 9 -83 9 -162 -1 -380 -30 -643 5 -1241 111 -1870 71 -425 224 -1058 273
-1130 13 -19 79 -96 146 -170 691 -763 1453 -1465 2214 -2040 l138 -105 -33
-6 c-42 -9 -454 -35 -774 -51 -312 -14 -1267 -14 -1600 1 -337 15 -691 37
-985 61 -342 29 -309 33 -479 -57 -437 -229 -970 -557 -1376 -848 -881 -631
-1611 -1364 -2142 -2151 -239 -355 -504 -845 -657 -1217 -325 -786 -495 -1559
-547 -2487 -14 -254 -6 -871 16 -1135 55 -678 159 -1299 336 -1999 105 -416
241 -873 277 -931 12 -20 71 -63 159 -118 269 -167 483 -338 688 -548 533
-547 812 -1235 841 -2079 5 -133 11 -185 24 -215 30 -69 527 -586 873 -908
1502 -1397 3040 -2196 4680 -2432 522 -74 1148 -85 1697 -29 1204 123 2435
548 3715 1282 256 147 524 314 552 344 12 12 50 84 84 158 415 907 970 1904
1524 2740 227 342 295 439 295 420 0 -8 11 -116 25 -240 101 -891 273 -1759
520 -2620 84 -292 207 -683 237 -752 35 -82 526 -550 883 -843 484 -397 952
-703 1544 -1009 260 -134 345 -192 499 -341 181 -174 299 -326 452 -580 92
-153 124 -178 219 -178 93 0 135 33 211 163 145 251 333 489 507 643 128 113
233 182 456 296 834 428 1518 927 2214 1616 l201 200 70 215 c348 1069 579
2132 697 3215 15 132 28 241 30 243 9 9 401 -578 607 -908 423 -679 902 -1568
1227 -2280 34 -74 72 -146 84 -158 28 -30 296 -197 552 -344 1402 -804 2706
-1226 4050 -1309 239 -15 787 -6 1020 16 1767 167 3415 978 5022 2472 345 320
842 838 873 908 14 31 19 80 24 211 25 728 233 1335 637 1854 90 116 303 336
424 438 136 115 312 242 468 339 88 55 147 98 159 118 54 88 273 877 382 1375
164 754 241 1403 253 2120 14 882 -88 1649 -321 2415 -194 636 -509 1295 -889
1859 -531 787 -1261 1520 -2142 2151 -406 291 -939 619 -1376 848 -170 90
-137 86 -479 57 -293 -24 -647 -46 -985 -61 -332 -15 -1287 -15 -1600 -1 -320
16 -732 42 -774 51 l-33 6 138 105 c628 474 1317 1090 1857 1658 257 270 482
519 509 561 44 69 201 729 267 1121 106 630 141 1228 111 1872 -11 222 -11
297 -1 380 34 285 133 571 308 894 45 82 84 163 88 181 8 41 -10 110 -42 151
-45 60 -77 68 -288 75 -306 10 -518 43 -740 114 -161 52 -293 117 -482 241
-549 357 -1082 626 -1687 851 -436 162 -1007 331 -1120 331 -95 0 -752 -151
-1221 -281 -732 -203 -1532 -491 -2215 -797 -85 -38 -156 -68 -158 -67 -1 1
55 123 127 271 452 941 1018 1903 1666 2834 67 96 131 191 141 210 18 33 19
65 19 635 0 614 -5 750 -46 1164 -179 1838 -799 3350 -1861 4536 -233 260
-573 583 -843 801 -1103 891 -2568 1552 -4317 1949 -220 50 -225 49 -377 -33
-378 -205 -750 -334 -1136 -394 -189 -30 -606 -32 -790 -5 -381 57 -731 175
-1122 377 -197 102 -207 104 -363 68z m2290 -18148 c484 -44 922 -185 1333
-429 704 -418 1225 -1108 1432 -1893 261 -993 26 -2044 -633 -2828 -116 -138
-349 -361 -490 -468 -412 -313 -869 -515 -1362 -601 -209 -36 -312 -45 -550
-45 -369 0 -652 45 -990 156 -620 204 -1184 621 -1567 1158 -542 759 -716
1721 -478 2628 91 345 262 711 468 1002 537 756 1362 1233 2282 1319 131 12
422 13 555 1z"/>
</g>
</svg>
